Coordinates
version=1
nRows=16
nColumns=36
inDegrees=yes

Units are S.I. units (second, meters, Newtons, ...)
If the header above contains a line with 'inDegrees', this indicates whether rotational values are in degrees (yes) or radians (no).

endheader
time	pelvis_tilt	pelvis_list	pelvis_rotation	pelvis_tx	pelvis_ty	pelvis_tz	hip_flexion_r	hip_adduction_r	hip_rotation_r	knee_angle_r	knee_angle_r_beta	ankle_angle_r	subtalar_angle_r	mtp_angle_r	hip_flexion_l	hip_adduction_l	hip_rotation_l	knee_angle_l	knee_angle_l_beta	ankle_angle_l	subtalar_angle_l	mtp_angle_l	lumbar_extension	lumbar_bending	lumbar_rotation	arm_flex_r	arm_add_r	arm_rot_r	elbow_flex_r	pro_sup_r	arm_flex_l	arm_add_l	arm_rot_l	elbow_flex_l	pro_sup_l
      4.88333330	     -0.43584896	     -4.48350562	     14.67367982	      0.66102483	      1.00026220	     -0.15561738	     45.97487669	     -0.83491725	      0.34160639	     32.70674695	      0.57084042	    -11.14156736	    -16.00793966	     -7.49999987	      3.03127657	      2.94911204	     10.36781770	     11.29735753	      0.19717609	      5.49396904	    -12.19601758	     -7.49999987	     -8.42277461	      1.80928099	     -0.85765816	     34.30439684	      4.81903999	     67.98398536	    125.45883387	     90.36706586	     36.02545102	      3.45737854	     74.58072662	    127.51272906	     70.54588590
      4.90000000	     -0.30225046	     -4.49707156	     14.49929484	      0.66152595	      1.00228845	     -0.15538102	     45.66829025	     -0.63379696	      0.25517116	     32.69374527	      0.57061350	    -10.89225185	    -15.91080773	     -7.49999987	      2.72238086	      2.89353773	     10.23022586	     11.13065627	      0.19426660	      5.82581940	    -12.19869735	     -7.49999987	     -8.54522463	      1.87313176	     -0.83125542	     34.16441059	      4.90402326	     68.12473632	    125.46083587	     89.84900515	     35.89419233	      3.48279835	     74.39931320	    127.33304121	     70.39062398
      4.91666670	     -0.23064068	     -4.56590831	     14.45447747	      0.66153713	      1.00246461	     -0.15565837	     45.44391618	     -0.50717501	      0.15523116	     32.55198414	      0.56813930	    -10.78993765	    -15.81553296	     -7.49999987	      2.55643990	      2.75600067	     10.29843131	     10.97953366	      0.19162901	      6.16248913	    -12.07671886	     -7.49999987	     -8.61527899	      2.00346422	     -0.85256305	     34.12396076	      4.89424693	     68.28608050	    125.54008590	     89.43847020	     35.75569035	      3.55587893	     74.32593317	    127.19074412	     70.23970154
      4.93333330	     -0.28492375	     -4.50597235	     14.81607806	      0.66113757	      1.00176402	     -0.15523637	     45.19247905	     -0.65997315	      0.13219579	     32.16313531	      0.56135261	    -10.80861684	    -16.04699149	     -7.49999987	      2.66464577	      2.77160654	     10.57649629	     10.99840317	      0.19195835	      6.19861003	    -11.97246788	     -7.49999987	     -8.60453235	      1.91815679	     -1.05685559	     34.06420051	      4.88953442	     68.32858311	    125.57878395	     89.13421698	     35.74978859	      3.61124238	     74.36356273	    127.12167604	     70.27090712
      4.95000000	     -0.39236418	     -4.46549157	     14.99487400	      0.65812412	      1.00131386	     -0.15287530	     45.28251420	     -0.70382962	      0.08024887	     32.01293682	      0.55873115	    -10.78899084	    -15.86391899	     -7.49999987	      3.08285530	      2.77807219	     10.51733012	     11.26069899	      0.19653627	      6.03758036	    -11.89413138	     -7.49999987	     -8.70437783	      1.71709666	     -1.25249157	     34.15046666	      4.96642069	     68.32593131	    125.69229746	     88.82211241	     35.80833344	      3.63210978	     74.36244899	    127.07133891	     70.15213269
      4.96666670	     -0.35784842	     -4.45620886	     15.03122456	      0.65831526	      1.00082599	     -0.15284017	     45.22585818	     -0.58872620	      0.08284925	     31.94008156	      0.55745959	    -10.80468402	    -16.23975924	     -7.49999987	      3.22228624	      2.71843707	     10.45055415	     11.34525058	      0.19801198	      5.77981932	    -12.11078881	     -7.49999987	     -8.97721199	      1.63497526	     -1.29342920	     34.51075007	      5.02302136	     68.34797088	    125.54017176	     88.39588514	     36.05140320	      3.72212434	     74.39658886	    127.02061532	     69.93286398
      4.98333330	     -0.35266978	     -4.52790889	     15.10983366	      0.66216126	      1.00106902	     -0.15646247	     45.06714719	     -0.57797621	      0.04104591	     32.04205439	      0.55923935	    -10.61823179	    -16.33258342	     -7.49999987	      3.25659942	      2.67481691	     10.31359518	     11.48082207	      0.20037815	      5.68971893	    -12.12956845	     -7.49999987	     -8.99007218	      1.72848036	     -1.35239978	     34.41180339	      4.94557574	     68.36289083	    125.53182493	     88.47215327	     35.96789597	      3.71509082	     74.37579222	    126.98850276	     69.96594073
      5.00000000	     -0.45881958	     -4.58429236	     15.10894654	      0.66127954	      0.99709603	     -0.15609315	     45.24706768	     -0.70861748	     -0.04785905	     32.23808693	      0.56266076	    -10.11673871	    -16.04145303	     -7.49999987	      3.59488199	      2.74912643	     10.01863688	     12.02968114	      0.20995754	      6.09710218	    -11.81109415	     -7.49999987	     -8.97558178	      1.76378080	     -1.38798257	     34.46865206	      4.90883835	     68.33616456	    125.62089338	     87.97724930	     35.77178938	      3.84359968	     74.30992813	    127.10068876	     69.95231008
      5.01666670	     -0.64666324	     -4.57234231	     15.20601032	      0.65751042	      1.00105427	     -0.15298417	     45.46743109	     -0.80121790	     -0.05479554	     32.06377194	      0.55961839	    -10.33585321	    -16.26618768	     -7.49999987	      3.96883482	      2.81727756	     10.08475596	     12.29157014	      0.21452837	      5.96149622	    -12.04431445	     -7.49999987	     -9.05326223	      1.58249267	     -1.51219893	     34.55779108	      4.89671322	     68.15793039	    125.55577759	     91.98764668	     35.79084167	      3.85498941	     74.31913628	    127.03546192	     72.04242552
      5.03333330	     -0.63088553	     -4.58077009	     15.16016117	      0.66129044	      0.99920824	     -0.15608992	     45.40357207	     -0.79629388	     -0.06003907	     32.06306324	      0.55960602	    -10.28235063	    -16.24351673	     -7.49999987	      3.83618997	      2.79444941	     10.07980577	     12.32232839	      0.21506520	      6.04908017	    -12.04363233	     -7.49999987	     -8.95112912	      1.57459091	     -1.57913554	     34.53600122	      4.84930722	     68.13189893	    125.52645311	     91.99208858	     35.76667407	      3.90636898	     74.33712108	    127.03106312	     72.04497954
      5.05000000	     -0.84762500	     -4.73771199	     15.25472480	      0.66087642	      0.99756721	     -0.15627742	     45.68472155	     -0.84873250	     -0.20698698	     32.25155387	      0.56289580	     -9.84175583	    -15.78903714	     -7.49999987	      4.16579668	      2.74902609	      9.98033982	     12.55792867	      0.21917720	      6.62329903	    -11.73928082	     -7.49999987	     -8.67172693	      1.64094782	     -1.77004463	     34.54449273	      4.71807899	     68.07028901	    125.57946626	     90.73901436	     35.48394403	      4.02733866	     74.41772608	    126.97601471	     71.49454300
      5.06666670	     -0.94935762	     -4.76723058	     15.39037548	      0.65714351	      1.00141148	     -0.15292986	     45.74433800	     -0.80560098	     -0.22379830	     32.07011724	      0.55972914	     -9.73042370	    -15.78430495	     -7.49999987	      4.38079505	      2.70011441	      9.99577943	     12.59511898	      0.21982630	      6.61501870	    -11.70459920	     -7.49999987	     -8.76761607	      1.54106030	     -1.80920358	     34.71362102	      4.72468608	     68.00788263	    125.58557085	     90.77655119	     35.49683701	      4.09981571	     74.50032878	    126.98131055	     71.52250549
      5.08333330	     -1.17526820	     -4.76182678	     15.52896904	      0.65762219	      0.99968558	     -0.15379830	     45.90185041	     -0.92107493	     -0.37250904	     32.07981326	      0.55989836	     -9.29559829	    -15.69933900	     -7.49999987	      4.94426345	      2.74039277	      9.85777359	     12.98345042	      0.22660396	      6.80160766	    -11.33356596	     -7.49999987	     -8.73889901	      1.39056223	     -1.90167225	     34.83888060	      4.69762796	     68.07870317	    125.73106386	     90.17204789	     35.51840313	      4.16016875	     74.89571524	    127.01235647	     71.37447568
      5.10000000	     -1.52268863	     -4.74987078	     15.50311164	      0.65785866	      0.99893461	     -0.15385428	     46.33290832	     -1.03312728	     -0.51271118	     32.23135125	      0.56254320	     -9.03586759	    -15.41438686	     -7.49999987	      5.49347384	      2.81497579	      9.48009210	     13.24218950	      0.23111981	      7.10347405	    -10.68934803	     -7.49999987	     -8.51429959	      1.18142301	     -1.96047307	     34.72225740	      4.67580014	     68.08496952	    125.84346859	     88.55858649	     35.31917339	      4.17931007	     75.02932446	    127.10053084	     70.59756941
      5.11666670	     -1.46038858	     -4.52823044	     15.39631459	      0.65460481	      0.99690833	     -0.15109411	     46.41913576	     -0.99511953	     -0.20393073	     32.25698810	      0.56299065	     -9.12435621	    -15.61579680	     -7.49999987	      5.53177193	      2.93292962	      9.40665776	     13.36544744	      0.23327106	      7.48931359	    -10.28233710	     -7.49999987	     -9.06673848	      0.80880659	     -1.73215535	     35.23246559	      4.75820030	     68.21444689	    125.84352347	     89.01076372	     36.07257211	      4.30611763	     75.36716684	    127.06150672	     70.95197074
      5.13333330	     -1.64411467	     -4.40713342	     15.29172223	      0.65469221	      0.99706538	     -0.15074757	     46.82427640	     -1.02812146	     -0.12257848	     32.46444208	      0.56661140	     -9.12453453	    -15.52170339	     -7.49999987	      5.81919849	      3.02218133	      9.34589971	     13.45677405	      0.23486501	      7.49262735	    -10.08039707	     -7.49999987	     -9.13639825	      0.46404738	     -1.64522178	     35.38312908	      4.80551762	     68.03083500	    125.76223587	     88.81847391	     36.38905745	      4.21074201	     75.38643436	    127.15133008	     70.78118478
